<svg width="181" height="48" viewBox="0 0 181 48" fill="none" xmlns="http://www.w3.org/2000/svg">
  <path d="M24 0C37.2548 0 48 10.7452 48 24C48 37.2548 37.2548 48 24 48C10.7452 48 0 37.2548 0 24C0 10.7452 10.7452 0 24 0ZM24 12C17.3726 12 12 17.3726 12 24C12 30.6274 17.3726 36 24 36C30.6274 36 36 30.6274 36 24C36 17.3726 30.6274 12 24 12ZM24 16C28.4183 16 32 19.5817 32 24C32 28.4183 28.4183 32 24 32C19.5817 32 16 28.4183 16 24C16 19.5817 19.5817 16 24 16Z" fill="#FA8232"/>
  <path d="M67.264 36.32C66.112 36.32 64.9867 36.176 63.888 35.888C62.7893 35.6 61.7867 35.168 60.88 34.592C59.9733 34.016 59.2267 33.296 58.64 32.432C58.064 31.568 57.7173 30.5547 57.6 29.392H62.384C62.544 30.096 62.848 30.688 63.296 31.168C63.7547 31.648 64.3413 32.016 65.056 32.272C65.7813 32.528 66.608 32.656 67.536 32.656C68.272 32.656 68.9707 32.5493 69.632 32.336C70.2933 32.1227 70.832 31.7973 71.248 31.36C71.664 30.9227 71.872 30.3733 71.872 29.712C71.872 28.9227 71.584 28.3307 71.008 27.936C70.432 27.5307 69.648 27.2107 68.656 26.976L64.32 26.032C63.0933 25.776 62.0213 25.3813 61.104 24.848C60.1973 24.304 59.4987 23.6 59.008 22.736C58.5173 21.8613 58.272 20.8 58.272 19.552C58.272 18.112 58.6667 16.8693 59.456 15.824C60.256 14.7787 61.3387 13.9787 62.704 13.424C64.08 12.8587 65.6213 12.576 67.328 12.576C69.2587 12.576 70.8853 12.8907 72.208 13.52C73.5413 14.1387 74.56 14.9813 75.264 16.048C75.968 17.104 76.3253 18.2827 76.336 19.584H71.664C71.5787 18.784 71.3333 18.144 70.928 17.664C70.5227 17.1733 70 16.8213 69.36 16.608C68.7307 16.384 68.0107 16.272 67.2 16.272C65.8027 16.272 64.784 16.5547 64.144 17.12C63.504 17.6853 63.184 18.3413 63.184 19.088C63.184 19.792 63.424 20.3627 63.904 20.8C64.3947 21.2267 65.1787 21.552 66.256 21.776L70.272 22.64C71.7653 22.928 72.976 23.3867 73.904 24.016C74.832 24.6347 75.5093 25.3867 75.936 26.272C76.3627 27.1573 76.576 28.1493 76.576 29.248C76.576 30.6453 76.176 31.8773 75.376 32.944C74.5867 34 73.4933 34.8267 72.096 35.424C70.6987 36.0213 69.088 36.32 67.264 36.32ZM86.1835 36.176C84.7222 36.176 83.5915 35.9893 82.7915 35.616C82.0022 35.2427 81.4528 34.72 81.1435 34.048C80.8448 33.376 80.6955 32.5973 80.6955 31.712V22.704H78.0075V19.456H80.8395L82.0235 14.464H85.3515V19.44H89.0315V22.704H85.3515L85.3835 31.52C85.3835 31.9253 85.4315 32.2293 85.5275 32.432C85.6342 32.624 85.7942 32.752 86.0075 32.816C86.2315 32.8693 86.5142 32.896 86.8555 32.896H89.0795V35.776C88.8555 35.872 88.5195 35.9627 88.0715 36.048C87.6235 36.1333 86.9942 36.176 86.1835 36.176ZM98.4048 36.32C96.7834 36.32 95.3701 35.9733 94.1648 35.28C92.9701 34.5867 92.0421 33.6053 91.3808 32.336C90.7301 31.0667 90.4048 29.5627 90.4048 27.824C90.4048 26.0853 90.7301 24.5653 91.3808 23.264C92.0421 21.9627 92.9701 20.9493 94.1648 20.224C95.3701 19.4987 96.7888 19.136 98.4208 19.136C100.053 19.136 101.466 19.4933 102.661 20.208C103.855 20.912 104.778 21.9147 105.429 23.216C106.079 24.5173 106.405 26.0533 106.405 27.824C106.405 29.488 106.085 30.96 105.445 32.24C104.815 33.5093 103.903 34.5067 102.709 35.232C101.525 35.9573 100.09 36.32 98.4048 36.32ZM98.4208 32.848C99.2421 32.848 99.9034 32.608 100.405 32.128C100.906 31.648 101.269 31.0187 101.493 30.24C101.717 29.4507 101.829 28.592 101.829 27.664C101.829 26.7893 101.727 25.9627 101.525 25.184C101.322 24.4053 100.97 23.776 100.469 23.296C99.9674 22.816 99.2848 22.576 98.4208 22.576C97.5994 22.576 96.9328 22.8053 96.4208 23.264C95.9194 23.712 95.5514 24.3253 95.3168 25.104C95.0821 25.872 94.9648 26.7253 94.9648 27.664C94.9648 28.528 95.0714 29.36 95.2848 30.16C95.4981 30.9493 95.8554 31.5947 96.3568 32.096C96.8581 32.5973 97.5461 32.848 98.4208 32.848ZM108.955 36V19.456H113.451V23.376C113.718 22.5333 114.091 21.7973 114.571 21.168C115.062 20.528 115.654 20.032 116.347 19.68C117.04 19.3173 117.824 19.136 118.699 19.136C118.848 19.136 118.987 19.1467 119.115 19.168C119.254 19.1787 119.355 19.2 119.419 19.232V23.68C119.323 23.6373 119.206 23.6107 119.067 23.6C118.939 23.5893 118.822 23.5787 118.715 23.568C117.798 23.4933 117.014 23.52 116.363 23.648C115.712 23.776 115.184 23.9947 114.779 24.304C114.374 24.6133 114.08 24.992 113.899 25.44C113.718 25.888 113.627 26.3893 113.627 26.944V36H108.955ZM124.438 41.28C123.308 41.28 122.508 41.184 122.038 40.992C121.569 40.8107 121.334 40.72 121.334 40.72V37.744L122.982 37.808C123.697 37.8507 124.273 37.8133 124.71 37.696C125.148 37.5893 125.478 37.4453 125.702 37.264C125.926 37.0827 126.086 36.8907 126.182 36.688C126.289 36.496 126.364 36.3413 126.406 36.224L126.71 35.312L120.278 19.456H124.902L128.87 30.24L132.87 19.456H137.446L130.742 36.096C130.166 37.504 129.553 38.5813 128.902 39.328C128.262 40.0747 127.569 40.5867 126.822 40.864C126.086 41.1413 125.292 41.28 124.438 41.28ZM139.83 36V12.864H148.342C150.027 12.864 151.536 13.1573 152.87 13.744C154.203 14.32 155.254 15.1733 156.022 16.304C156.8 17.4347 157.19 18.816 157.19 20.448C157.19 21.984 156.848 23.296 156.166 24.384C155.483 25.472 154.523 26.304 153.286 26.88C152.059 27.456 150.614 27.744 148.95 27.744H144.534V36H139.83ZM144.486 24.128H148.822C149.995 24.128 150.955 23.7547 151.702 23.008C152.448 22.2507 152.822 21.3173 152.822 20.208C152.822 19.056 152.427 18.144 151.638 17.472C150.848 16.7893 149.888 16.448 148.758 16.448H144.486V24.128ZM169.52 36.32C167.365 36.32 165.504 35.8187 163.936 34.816C162.368 33.8133 161.157 32.4053 160.304 30.592C159.461 28.7787 159.04 26.6613 159.04 24.24C159.04 21.808 159.461 19.7227 160.304 17.984C161.146 16.2347 162.352 14.8907 163.92 13.952C165.488 13.0133 167.354 12.544 169.52 12.544C171.258 12.544 172.805 12.896 174.16 13.6C175.525 14.2933 176.624 15.2427 177.456 16.448C178.298 17.6533 178.794 19.0133 178.944 20.528H174.048C173.898 19.728 173.626 19.0187 173.232 18.4C172.837 17.7707 172.32 17.28 171.68 16.928C171.04 16.5653 170.272 16.384 169.376 16.384C168.298 16.384 167.37 16.6453 166.592 17.168C165.813 17.6907 165.216 18.5333 164.8 19.696C164.384 20.8587 164.176 22.3947 164.176 24.304C164.176 27.184 164.634 29.2693 165.552 30.56C166.48 31.84 167.754 32.48 169.376 32.48C170.272 32.48 171.04 32.2773 171.68 31.872C172.32 31.456 172.837 30.912 173.232 30.24C173.626 29.5573 173.898 28.8107 174.048 28H178.944C178.805 29.0987 178.538 30.1493 178.144 31.152C177.749 32.144 177.189 33.0293 176.464 33.808C175.738 34.5867 174.805 35.2 173.664 35.648C172.522 36.096 171.141 36.32 169.52 36.32Z" fill="white"/>
</svg>

